<svg xmlns="http://www.w3.org/2000/svg" data-name="Layer 1" viewBox="0 0 512 512" fill="#fff">
  <path d="M256 176.9a79.1 79.1 0 1 0 79.1 79.1 79.2 79.2 0 0 0-79.1-79.1z"/>
  <path d="M491 152.26l-27.67-47.92a39.38 39.38 0 0 0-53.8-14.42l-24.1 13.9A200.4 200.4 0 0 0 323 67.7V40c0-21.75-17.58-40-39.33-40h-55.34C206.58 0 189 18.23 189 40v27.7a200.4 200.4 0 0 0-62.46 36.1l-24.08-13.88a39.4 39.4 0 0 0-53.8 14.42L21 152.26a39.38 39.38 0 0 0 14.4 53.8l24 13.87a201.5 201.5 0 0 0 0 72.13l-24 13.87a39.38 39.38 0 0 0-14.4 53.8l27.67 47.93a39.38 39.38 0 0 0 53.8 14.42l24.1-13.9A200.4 200.4 0 0 0 189 444.3V472c0 21.75 17.58 40 39.33 40h55.34c21.75 0 39.33-18.23 39.33-40v-27.7a200.4 200.4 0 0 0 62.46-36.1l24.07 13.88a39.4 39.4 0 0 0 53.8-14.42L491 359.74a39.38 39.38 0 0 0-14.4-53.8l-24-13.87a201.5 201.5 0 0 0 0-72.13l24-13.87a39.38 39.38 0 0 0 14.4-53.8zM256 375.1A119.1 119.1 0 1 1 375.1 256 119.24 119.24 0 0 1 256 375.1z"/>
</svg>
