<?xml version="1.0" encoding="utf-8"?>
<!-- Generator: Adobe Illustrator 15.0.0, SVG Export Plug-In . SVG Version: 6.00 Build 0)  -->
<!DOCTYPE svg PUBLIC "-//W3C//DTD SVG 1.1//EN" "http://www.w3.org/Graphics/SVG/1.1/DTD/svg11.dtd">
<svg version="1.1" id="Layer_1" xmlns="http://www.w3.org/2000/svg" xmlns:xlink="http://www.w3.org/1999/xlink" x="0px" y="0px"
	 width="800px" height="200px" viewBox="0 200 800 200" enable-background="new 0 200 800 200" xml:space="preserve">
<g>
	<path id="tick" fill="#595959" d="M83.8,378.974l-60-62.4c-8.4-9-8.4-16.8,0-25.2c8.4-8.399,16.2-8.399,25.2,0l49.2,48.601
		l118.8-118.8c8.4-8.4,16.2-8.4,24.6,0c8.4,8.399,8.4,16.199,0.6,25.199l0,0L109.6,378.974 M109,378.974c-9,8.399-16.8,8.399-25.2,0
		"/>
</g>
<g>
	<path id="cross" fill="#595959" d="M503.433,248.474l-51.6,51.6l51.6,51.6c8.4,9.601,8.4,18.601-0.6,26.4c-9,8.4-18,8.4-25.801,0
		l-51.6-51.6l-51.6,51.6c-9.601,8.4-18.601,8.4-26.4,0s-8.399-16.8,0-26.4l51.6-51.6l-51.6-51.6c-8.399-9.601-8.399-18.601,0-26.4
		c8.4-7.8,16.8-8.4,26.4,0l51.6,51.6l51.6-51.6c8.4-8.4,16.801-8.4,25.801,0C512.433,229.873,512.433,238.873,503.433,248.474
		L503.433,248.474z"/>
</g>
<path fill="#595959" d="M786.539,300.419c0.04-0.596,0.064-1.183,0.064-1.761c0-2.462-0.37-4.769-1.178-6.866
	c-0.604-1.571-1.457-3.017-2.538-4.271c-1.62-1.888-3.729-3.314-6.129-4.283c-2.404-0.972-5.105-1.515-8.087-1.715l-0.116-0.008
	h-55.03v-54.973l-0.002-0.055c-0.087-2.66-0.446-5.097-1.142-7.309c-0.521-1.657-1.235-3.189-2.17-4.554
	c-1.394-2.049-3.311-3.69-5.565-4.733c-2.256-1.051-4.8-1.523-7.529-1.522c-0.865,0-1.752,0.049-2.66,0.141
	c-2.667,0.105-5.105,0.5-7.311,1.271c-1.686,0.591-3.236,1.408-4.591,2.468c-2.038,1.585-3.584,3.722-4.538,6.167
	c-0.962,2.449-1.378,5.186-1.379,8.185v54.914h-55.03l-0.117,0.008c-2.818,0.188-5.353,0.686-7.615,1.56
	c-1.694,0.655-3.234,1.528-4.57,2.624c-2.009,1.64-3.515,3.777-4.479,6.179c-0.97,2.407-1.436,5.065-1.544,7.943v-0.001
	c-0.012,0.33-0.018,0.657-0.018,0.981c0,2.5,0.367,4.847,1.174,6.986c0.604,1.604,1.457,3.083,2.544,4.373
	c1.63,1.941,3.766,3.426,6.215,4.437c2.454,1.015,5.225,1.584,8.293,1.79l0.116,0.008h55.031v55.029l0.008,0.118
	c0.188,2.818,0.686,5.353,1.56,7.615c0.655,1.694,1.528,3.234,2.624,4.57c1.64,2.009,3.777,3.515,6.179,4.479
	c2.407,0.97,5.065,1.436,7.943,1.544c0.329,0.012,0.654,0.018,0.977,0.018c2.501,0,4.848-0.367,6.988-1.174
	c1.603-0.603,3.083-1.457,4.373-2.544c1.941-1.63,3.427-3.766,4.437-6.215c1.016-2.454,1.585-5.225,1.791-8.293l0.008-0.117v-55.03
	h54.894c0.292,0.009,0.583,0.016,0.87,0.016c2.5,0,4.842-0.366,6.974-1.165c1.597-0.598,3.069-1.442,4.351-2.519
	c1.928-1.614,3.394-3.736,4.357-6.16c0.955-2.393,1.447-5.08,1.562-8.026h0.002c0.002-0.022,0.001-0.043,0.002-0.066
	c0.001-0.021,0.004-0.042,0.005-0.063H786.539z"/>
</svg>
