<svg xmlns="http://www.w3.org/2000/svg" width="200" height="29" fill="#fff">
  <path d="M-.1 14.5c0-2.07.34-3.95 1-5.63.64-1.7 1.55-3.12 2.7-4.3 1.17-1.2 2.55-2.1 4.15-2.74C9.35 1.2 11.1.88 13 .88c1.88 0 3.62.32 5.22.95 1.6.64 2.98 1.55 4.14 2.73 1.17 1.2 2.07 2.62 2.72 4.3.65 1.7.98 3.57.98 5.65 0 2.1-.33 4-.98 5.7s-1.55 3.1-2.72 4.3c-1.16 1.2-2.54 2.1-4.14 2.8-1.6.7-3.34 1-5.23 1-1.9 0-3.7-.3-5.3-.9-1.6-.64-3-1.55-4.2-2.73-1.2-1.2-2.1-2.64-2.7-4.3-.7-1.7-1-3.6-1-5.66zm5.56 0c0 1.23.17 2.34.53 3.36.3 1 .8 1.9 1.5 2.63s1.4 1.3 2.4 1.7c.9.4 1.9.6 3 .6s2.2-.2 3.1-.6c.9-.4 1.7-1 2.4-1.8.6-.8 1.1-1.7 1.5-2.7.3-1 .5-2.2.5-3.4 0-1.2-.2-2.3-.6-3.37s-.9-1.9-1.5-2.65-1.3-1.1-2.2-1.5c-.95-.43-1.98-.63-3.1-.63-1.17 0-2.2.2-3.1.62-.95.4-1.7 1-2.4 1.73-.6.74-1.1 1.63-1.5 2.65-.3 1-.5 2.1-.5 3.3zM25.7 1.54h6.1l6 17h.06l6.1-17h5.7L39.7 27.47h-4.3L25.7 1.54zm27.18 0h16.46V6.8H58.22v4.85h10.5v5.27h-10.5v5.27h11.74v5.2H52.9V1.5zm21.84 0h9.37c1.2 0 2.4.13 3.5.4 1.1.24 2 .67 2.9 1.27.8.6 1.5 1.4 2 2.5.4 1 .7 2.3.7 3.8 0 1.9-.5 3.4-1.4 4.7-.9 1.3-2.2 2.1-3.9 2.5L94 27.6h-6.4l-5-10.4H80v10.3h-5.3V1.54zm5.34 10.73h3.14c.48 0 1-.02 1.53-.05.53-.04 1.02-.15 1.45-.33.43-.2.8-.5 1.08-.9s.43-1 .43-1.7-.2-1.2-.4-1.6c-.3-.4-.6-.7-1-.9-.4-.2-.9-.4-1.4-.5-.5-.1-1-.1-1.5-.1H80v5.9zM97.4 1.53h16.27V6.8h-10.92v5.28h10.1v5.28h-10.1v10.1H97.4V1.54zm26.1 27.53l-9.84-7 2.73-4.4 5.3 3.84L134.6.83 139.07 4 123.5 29.05zm15.88-14.56c0-2.08.32-3.96.97-5.64.65-1.7 1.56-3.12 2.72-4.3 1.17-1.2 2.55-2.1 4.15-2.74 1.6-.63 3.34-.95 5.24-.95 1.9 0 3.64.32 5.24.95 1.6.64 2.97 1.55 4.14 2.73 1.16 1.2 2.07 2.62 2.72 4.3.65 1.7.98 3.57.98 5.65 0 2.08-.33 3.96-.98 5.64-.65 1.7-1.56 3.12-2.72 4.3-1.17 1.2-2.55 2.1-4.14 2.74-1.6.63-3.35.95-5.24.95-1.9 0-3.64-.32-5.24-.95-1.6-.64-2.98-1.55-4.15-2.73-1.16-1.2-2.07-2.62-2.72-4.3-.65-1.7-.97-3.57-.97-5.65zm5.54 0c0 1.22.18 2.34.53 3.35.36 1.02.86 1.9 1.53 2.64.66.7 1.45 1.3 2.38 1.7.92.4 1.95.6 3.1.6 1.14 0 2.17-.2 3.1-.6.92-.4 1.7-1 2.37-1.8s1.17-1.7 1.53-2.7c.35-1 .53-2.2.53-3.4 0-1.2-.2-2.3-.6-3.37-.4-1.04-.9-1.93-1.6-2.67s-1.5-1.3-2.4-1.7c-1-.44-2-.64-3.1-.64-1.2 0-2.2.2-3.1.63-1 .4-1.7 1-2.4 1.73s-1.2 1.62-1.6 2.65c-.37 1.02-.55 2.13-.55 3.33zm20.6-12.97h5.83l3.87 16.63h.07l5-16.63h4.9l5 17.07 4.06-17.07h5.4l-7.1 25.94H188l-5.3-17.95h-.06l-5.34 17.95h-4.58l-7.2-25.94z"/>
</svg>
